<?xml version="1.0" standalone="no"?>
<!DOCTYPE svg PUBLIC "-//W3C//DTD SVG 20010904//EN"
 "http://www.w3.org/TR/2001/REC-SVG-20010904/DTD/svg10.dtd">
<svg version="1.0" xmlns="http://www.w3.org/2000/svg"
 width="512.000000pt" height="512.000000pt" viewBox="0 0 512.000000 512.000000"
 preserveAspectRatio="xMidYMid meet">
<metadata>
Created by potrace 1.11, written by Peter Selinger 2001-2013
</metadata>
<g transform="translate(0.000000,512.000000) scale(0.100000,-0.100000)"
fill="#000000" stroke="none">
<path d="M1997 5095 c-105 -42 -169 -115 -213 -239 -18 -48 -20 -172 -4 -191
8 -9 8 -15 0 -20 -33 -20 -39 180 -6 242 11 22 13 34 5 39 -18 11 -114 7 -155
-6 -115 -38 -224 -155 -239 -255 -4 -22 -10 -55 -15 -74 -17 -63 -5 -158 25
-201 30 -43 86 -85 128 -95 30 -8 42 -21 28 -30 -14 -8 -82 28 -125 66 -70 61
-96 163 -71 282 14 68 8 70 -70 33 -128 -60 -221 -220 -210 -359 3 -35 -1 -46
-27 -73 -18 -18 -37 -30 -43 -28 -21 9 -32 -41 -31 -143 1 -88 4 -105 24 -132
25 -35 27 -41 10 -41 -19 0 -91 -104 -110 -159 -39 -110 -18 -226 57 -314 26
-30 33 -46 28 -61 -14 -43 -9 -93 14 -146 13 -30 26 -72 29 -95 6 -56 14 -107
19 -135 3 -14 7 -52 10 -86 l6 -60 -43 -14 c-75 -24 -132 -57 -187 -108 l-53
-50 -35 20 c-203 120 -480 -31 -489 -266 -2 -61 16 -128 43 -158 19 -21 21
-19 -43 -51 -87 -44 -166 -152 -215 -296 -27 -77 -34 -130 -34 -266 0 -293 49
-414 282 -700 175 -216 229 -270 308 -311 105 -55 214 -70 435 -61 32 2 39 -4
102 -83 144 -179 180 -202 323 -204 50 0 124 2 165 6 l75 8 65 -66 c104 -105
211 -165 347 -197 62 -14 227 -15 293 -2 99 20 232 94 308 173 l43 44 59 -60
c182 -187 466 -189 630 -4 49 54 88 135 97 197 6 45 10 48 83 61 73 13 215 81
260 124 3 3 27 25 52 49 l47 45 23 -29 c12 -16 36 -40 52 -54 16 -14 34 -31
40 -37 44 -42 182 -84 276 -84 194 0 382 177 398 375 4 61 6 64 31 61 67 -6
179 43 239 105 53 55 74 109 78 207 5 123 -15 198 -85 323 -32 57 -69 124 -83
149 -13 25 -59 108 -101 185 -42 77 -94 158 -115 181 -48 49 -123 87 -175 87
-34 0 -42 5 -63 39 -37 59 -152 208 -198 256 -45 48 -116 88 -189 108 -49 13
-159 13 -207 0 -22 -5 -31 2 -82 72 -32 43 -73 92 -91 110 l-34 33 13 92 c8
51 16 117 19 147 6 55 13 111 21 164 3 16 13 47 23 69 18 38 21 91 7 133 -5
15 2 30 24 55 71 81 98 194 69 292 -19 64 -59 137 -91 167 -27 25 -29 25 -59
-1 -51 -46 -116 -67 -192 -64 -40 1 -81 5 -92 8 -17 5 -24 -2 -43 -47 -13 -30
-36 -68 -50 -84 -31 -33 -82 -69 -82 -56 1 5 15 18 32 29 42 26 90 95 92 132
2 16 7 37 13 46 8 15 14 16 39 7 45 -18 141 -20 193 -4 94 28 149 90 157 178
3 28 7 70 9 93 4 41 2 45 -54 100 -59 57 -60 59 -57 108 9 136 -85 293 -209
351 -61 29 -90 31 -80 7 4 -10 10 -38 14 -64 18 -110 -9 -200 -77 -260 -46
-40 -121 -74 -134 -61 -6 6 6 15 36 25 100 34 156 102 161 195 4 78 -21 208
-50 257 -46 79 -120 143 -196 171 -44 15 -148 22 -166 11 -7 -4 -4 -27 8 -63
27 -82 22 -211 -9 -222 -9 -3 -10 3 -2 22 25 65 9 181 -38 272 -30 58 -100
124 -162 153 -44 20 -70 25 -130 25 -121 -1 -188 -48 -236 -166 -19 -45 -22
-74 -23 -219 l-2 -167 36 8 c37 8 182 6 192 -3 14 -15 -11 -23 -49 -18 -24 4
-59 6 -78 5 -19 -2 -50 -4 -67 -5 l-33 -2 0 -244 c0 -152 -4 -243 -10 -243 -6
0 -11 92 -12 242 -3 232 -4 241 -23 245 -44 8 -130 10 -162 3 -30 -7 -54 3
-40 17 10 9 152 12 190 4 l37 -9 0 159 c0 175 -13 237 -65 305 -66 86 -195
115 -308 69z m-132 -566 c22 -22 55 -50 73 -61 l34 -21 37 37 c55 54 71 44 19
-12 -25 -26 -51 -66 -58 -88 -7 -21 -16 -43 -21 -48 -17 -19 -19 2 -3 45 l15
44 -27 20 c-44 31 -124 107 -124 116 0 17 16 8 55 -32z m1076 23 c-13 -24 -79
-84 -119 -107 l-31 -18 20 -38 c10 -21 19 -43 19 -49 0 -14 -25 -8 -25 6 -1
24 -50 106 -80 133 -21 18 -30 33 -24 37 6 3 28 -11 49 -31 l38 -38 34 21 c18
12 51 39 73 61 43 43 62 53 46 23z m-551 -723 l0 -111 56 -54 c62 -59 137
-100 199 -109 56 -9 76 -15 70 -24 -8 -14 -119 9 -173 36 -29 15 -75 48 -102
74 l-50 48 0 -272 c0 -186 -3 -268 -10 -261 -7 7 -10 102 -8 272 2 144 0 262
-3 262 -3 0 -15 -11 -25 -25 -22 -30 -115 -96 -159 -113 -43 -18 -132 -30
-146 -21 -9 5 -5 9 12 12 13 3 50 11 82 17 64 13 139 59 198 122 l39 40 0 109
c0 66 4 109 10 109 6 0 10 -44 10 -111z m-1292 -3 c47 -24 156 -26 241 -5 9 3
18 -8 24 -26 19 -63 52 -118 91 -151 22 -19 34 -34 28 -34 -23 0 -88 77 -112
133 -23 53 -27 57 -50 50 -14 -4 -59 -7 -101 -7 -65 0 -82 4 -129 30 -30 17
-56 37 -58 45 -4 11 0 10 14 -2 10 -9 34 -24 52 -33z"/>
</g>
</svg>
